<?xml version="1.0" encoding="UTF-8" standalone="no"?>
<!-- Created with Inkscape (http://www.inkscape.org/) -->
<svg xmlns:svg="http://www.w3.org/2000/svg" xmlns="http://www.w3.org/2000/svg" xmlns:xlink="http://www.w3.org/1999/xlink" xmlns:inkscape="http://www.inkscape.org/namespaces/inkscape" xmlns:dc="http://purl.org/dc/elements/1.1/" xmlns:cc="http://web.resource.org/cc/" xmlns:rdf="http://www.w3.org/1999/02/22-rdf-syntax-ns#" version="1.0" width="445.04288" height="451.58554" id="svg20856">
  <defs id="defs3">
    <linearGradient id="linearGradient23445">
      <stop style="stop-color:#90b4c0;stop-opacity:1" offset="0" id="stop23447"/>
      <stop style="stop-color:#90b4c0;stop-opacity:0" offset="1" id="stop23449"/>
    </linearGradient>
    <linearGradient id="linearGradient22358">
      <stop style="stop-color:#ffffff;stop-opacity:1" offset="0" id="stop22360"/>
      <stop style="stop-color:#d0c898;stop-opacity:0" offset="1" id="stop22362"/>
    </linearGradient>
    <radialGradient cx="928.17999" cy="267.04999" r="68" fx="928.17999" fy="267.04999" id="radialGradient5729" xlink:href="#linearGradient4177" gradientUnits="userSpaceOnUse" gradientTransform="matrix(1.4403587,0,3.7149699e-7,0.6310855,-441.13694,109.08828)"/>
    <radialGradient cx="753" cy="-3" r="49" fx="753" fy="-3" id="radialGradient5727" xlink:href="#linearGradient6657" gradientUnits="userSpaceOnUse" gradientTransform="matrix(1.2863327,0,0,0.5510204,-64.396365,304.65306)"/>
    <radialGradient cx="572.28998" cy="236.59" r="81.779999" fx="556.17999" fy="212.64" id="radialGradient3661" xlink:href="#linearGradient5683" gradientUnits="userSpaceOnUse" gradientTransform="matrix(-0.2283198,5.1622055e-2,-0.141116,-0.6241442,118.27507,834.2809)"/>
    <radialGradient cx="572.28998" cy="236.59" r="81.779999" fx="556.17999" fy="212.64" id="radialGradient3659" xlink:href="#linearGradient5683" gradientUnits="userSpaceOnUse" gradientTransform="matrix(0.1719197,0.1588659,0.4342821,-0.4699667,-309.19283,705.91461)"/>
    <radialGradient cx="572.28998" cy="236.59" r="81.779999" fx="556.17999" fy="212.64" id="radialGradient3657" xlink:href="#linearGradient5683" gradientUnits="userSpaceOnUse" gradientTransform="matrix(9.5345717e-2,0.2935926,0.8025767,-0.2606412,-366.72911,572.12375)"/>
    <radialGradient cx="572.28998" cy="236.59" r="81.779999" fx="556.17999" fy="212.64" id="radialGradient3655" xlink:href="#linearGradient5683" gradientUnits="userSpaceOnUse" gradientTransform="matrix(-0.1719197,0.1588659,-0.4342821,-0.4699667,170.66218,732.78467)"/>
    <radialGradient cx="572.28998" cy="236.59" r="81.779999" fx="556.17999" fy="212.64" id="radialGradient3653" xlink:href="#linearGradient5683" gradientUnits="userSpaceOnUse" gradientTransform="matrix(-9.5345717e-2,0.2935926,-0.8025767,-0.2606412,228.19846,598.99381)"/>
    <radialGradient cx="572.28998" cy="236.59" r="81.779999" fx="556.17999" fy="212.64" id="radialGradient3651" xlink:href="#linearGradient5683" gradientUnits="userSpaceOnUse" gradientTransform="matrix(-0.2288525,0.2071568,-0.5662921,-0.6256009,203.27948,657.02484)"/>
    <radialGradient cx="572.28998" cy="236.59" r="81.779999" fx="556.17999" fy="212.64" id="radialGradient3649" xlink:href="#linearGradient5683" gradientUnits="userSpaceOnUse" gradientTransform="matrix(0.1543434,0.2673304,0.7307852,-0.4219197,-378.53502,632.68982)"/>
    <radialGradient cx="572.28998" cy="236.59" r="81.779999" fx="556.17999" fy="212.64" id="radialGradient3647" xlink:href="#linearGradient5683" gradientUnits="userSpaceOnUse" gradientTransform="matrix(-0.2673305,0.1543432,-0.4219187,-0.7307858,171.54705,777.20472)"/>
    <radialGradient cx="572.28998" cy="236.59" r="81.779999" fx="556.17999" fy="212.64" id="radialGradient3645" xlink:href="#linearGradient5683" gradientUnits="userSpaceOnUse" gradientTransform="matrix(0.1197581,0.2131406,0.7356656,-0.4133514,-340.3088,599.31795)"/>
    <radialGradient cx="572.28998" cy="236.59" r="81.779999" fx="556.17999" fy="212.64" id="radialGradient3643" xlink:href="#linearGradient5683" gradientUnits="userSpaceOnUse" gradientTransform="matrix(-0.172021,0.2563127,-0.7006668,-0.4702438,248.74059,605.7985)"/>
    <radialGradient cx="572.28998" cy="236.59" r="81.779999" fx="556.17999" fy="212.64" id="radialGradient3641" xlink:href="#linearGradient5683" gradientUnits="userSpaceOnUse" gradientTransform="matrix(-0.2497793,-9.5399777e-8,4.7536047e-7,-0.6828069,106.46012,837.32416)"/>
    <linearGradient id="linearGradient5683">
      <stop style="stop-color:#d8f055;stop-opacity:1" offset="0" id="stop5685"/>
      <stop style="stop-color:#778e2b;stop-opacity:1" offset="0.51351351" id="stop5689"/>
      <stop style="stop-color:#446313;stop-opacity:1" offset="1" id="stop5687"/>
    </linearGradient>
    <radialGradient cx="572.28998" cy="236.59" r="81.779999" fx="556.17999" fy="212.64" id="radialGradient3639" xlink:href="#linearGradient5683" gradientUnits="userSpaceOnUse" gradientTransform="matrix(-0.3131473,0.1807955,-0.4942298,-0.8560326,283.42607,772.60528)"/>
    <linearGradient id="linearGradient5731">
      <stop style="stop-color:#807b5e;stop-opacity:1" offset="0" id="stop5733"/>
      <stop style="stop-color:#3d3c37;stop-opacity:1" offset="1" id="stop5735"/>
    </linearGradient>
    <radialGradient cx="-61.470001" cy="716.21002" r="40.990002" fx="-60.349998" fy="698.08002" id="radialGradient5719" xlink:href="#linearGradient5731" gradientUnits="userSpaceOnUse" gradientTransform="matrix(1.2258007,-0.1876712,0.5017703,3.2773817,-345.4916,-1642.6171)"/>
    <radialGradient cx="928.53998" cy="255.11" r="68" fx="928.53998" fy="255.11" id="radialGradient6613" xlink:href="#linearGradient4177" gradientUnits="userSpaceOnUse" gradientTransform="matrix(1.6516861,0,4.260025e-7,0.5701701,-600.77093,125.35545)"/>
    <radialGradient cx="753" cy="-3" r="49" fx="753" fy="-3" id="radialGradient6611" xlink:href="#linearGradient6657" gradientUnits="userSpaceOnUse"/>
    <radialGradient cx="703.64001" cy="273.48001" r="125.26" fx="703.64001" fy="273.48001" id="radialGradient3601" xlink:href="#linearGradient5251" gradientUnits="userSpaceOnUse" gradientTransform="matrix(-0.1540659,-0.1935037,1.2309833,-0.9628146,1001.5975,575.1113)"/>
    <linearGradient x1="438.82001" y1="203.94" x2="390.94" y2="186.77" id="linearGradient3599" xlink:href="#linearGradient5269" gradientUnits="userSpaceOnUse" gradientTransform="matrix(0.6696153,0.8489858,-0.7320674,0.5652278,1118.8336,-321.83869)"/>
    <linearGradient x1="1325.47" y1="313.91" x2="1306.7" y2="384.82001" id="linearGradient3593" xlink:href="#linearGradient3340" gradientUnits="userSpaceOnUse"/>
    <linearGradient x1="1310.84" y1="314.98001" x2="1302.3" y2="371.73999" id="linearGradient3591" xlink:href="#linearGradient6551" gradientUnits="userSpaceOnUse"/>
    <linearGradient x1="1146.92" y1="148.74001" x2="1134.27" y2="142.72" id="linearGradient3589" xlink:href="#linearGradient6539" gradientUnits="userSpaceOnUse"/>
    <linearGradient x1="1166.2" y1="127.05" x2="1205.39" y2="127.05" id="linearGradient3587" xlink:href="#linearGradient6539" gradientUnits="userSpaceOnUse"/>
    <linearGradient x1="1154.38" y1="162.96001" x2="1169.0601" y2="162.96001" id="linearGradient3585" xlink:href="#linearGradient6539" gradientUnits="userSpaceOnUse"/>
    <linearGradient x1="1175.12" y1="150.11" x2="1193.0699" y2="142.34" id="linearGradient3583" xlink:href="#linearGradient6539" gradientUnits="userSpaceOnUse"/>
    <linearGradient x1="1150.41" y1="109.3" x2="1161.01" y2="105.93" id="linearGradient3581" xlink:href="#linearGradient6539" gradientUnits="userSpaceOnUse"/>
    <linearGradient x1="1130.41" y1="118.56" x2="1133.38" y2="109.05" id="linearGradient3579" xlink:href="#linearGradient6539" gradientUnits="userSpaceOnUse"/>
    <linearGradient x1="1137.88" y1="110.24" x2="1146.5" y2="104.81" id="linearGradient3577" xlink:href="#linearGradient6539" gradientUnits="userSpaceOnUse"/>
    <linearGradient x1="1156.24" y1="106.35" x2="1168.4" y2="106.35" id="linearGradient3575" xlink:href="#linearGradient6539" gradientUnits="userSpaceOnUse"/>
    <linearGradient x1="1129.42" y1="127.66" x2="1130.6899" y2="119.94" id="linearGradient3573" xlink:href="#linearGradient6539" gradientUnits="userSpaceOnUse"/>
    <linearGradient x1="1109.67" y1="137.11" x2="1128.66" y2="130.74001" id="linearGradient3571" xlink:href="#linearGradient6539" gradientUnits="userSpaceOnUse"/>
    <linearGradient x1="1132.8" y1="149.12" x2="1125.08" y2="138.08" id="linearGradient3569" xlink:href="#linearGradient6539" gradientUnits="userSpaceOnUse"/>
    <linearGradient x1="1140.3199" y1="160.03999" x2="1157.29" y2="160.03999" id="linearGradient3567" xlink:href="#linearGradient6539" gradientUnits="userSpaceOnUse"/>
    <linearGradient x1="1175.5" y1="166.17999" x2="1182.9301" y2="161.71001" id="linearGradient3565" xlink:href="#linearGradient6539" gradientUnits="userSpaceOnUse"/>
    <linearGradient x1="1186.0699" y1="141.27" x2="1192.9301" y2="134.55" id="linearGradient3563" xlink:href="#linearGradient6539" gradientUnits="userSpaceOnUse"/>
    <linearGradient x1="1177.15" y1="118.73" x2="1187.85" y2="111.92" id="linearGradient3561" xlink:href="#linearGradient6539" gradientUnits="userSpaceOnUse"/>
    <linearGradient x1="1163.72" y1="111.18" x2="1194.91" y2="111.18" id="linearGradient3559" xlink:href="#linearGradient6539" gradientUnits="userSpaceOnUse"/>
    <linearGradient x1="1160.6" y1="107.26" x2="1182.4399" y2="107.26" id="linearGradient3557" xlink:href="#linearGradient6539" gradientUnits="userSpaceOnUse"/>
    <linearGradient x1="1075.76" y1="159.89" x2="1160.67" y2="179.91" id="linearGradient3635" xlink:href="#linearGradient4014" gradientUnits="userSpaceOnUse" gradientTransform="matrix(-0.1250375,0,0,0.1250375,1077.4608,263.73913)"/>
    <radialGradient cx="570.69" cy="276.60999" r="125.26" fx="570.69" fy="276.60999" id="radialGradient6596" xlink:href="#linearGradient5251" gradientUnits="userSpaceOnUse" gradientTransform="matrix(-0.3989706,-0.3601747,1.7306391,-0.8370249,1003.1542,635.43465)"/>
    <linearGradient x1="438.82001" y1="203.94" x2="390.94" y2="186.77" id="linearGradient6594" xlink:href="#linearGradient5269" gradientUnits="userSpaceOnUse" gradientTransform="matrix(0.6696153,0.8489858,-0.7320674,0.5652278,1118.8336,-321.83869)"/>
    <radialGradient cx="703.64001" cy="273.48001" r="125.26" fx="703.64001" fy="273.48001" id="radialGradient6584" xlink:href="#linearGradient5251" gradientUnits="userSpaceOnUse" gradientTransform="matrix(-0.1540659,-0.1935037,1.2309833,-0.9628146,1001.5975,575.1113)"/>
    <linearGradient x1="438.82001" y1="203.94" x2="358.89999" y2="204.23" id="linearGradient6582" xlink:href="#linearGradient5269" gradientUnits="userSpaceOnUse" gradientTransform="matrix(0.6696153,0.8489858,-0.7320674,0.5652278,1118.8336,-321.83869)"/>
    <linearGradient id="linearGradient3340">
      <stop style="stop-color:#c4b980;stop-opacity:1" offset="0" id="stop3342"/>
      <stop style="stop-color:#b8ac68;stop-opacity:0" offset="1" id="stop3344"/>
    </linearGradient>
    <linearGradient x1="1325.47" y1="313.91" x2="1306.7" y2="384.82001" id="linearGradient3346" xlink:href="#linearGradient3340" gradientUnits="userSpaceOnUse"/>
    <linearGradient id="linearGradient6551">
      <stop style="stop-color:#a4a05c;stop-opacity:1" offset="0" id="stop6553"/>
      <stop style="stop-color:#6f6b3e;stop-opacity:1" offset="1" id="stop6555"/>
    </linearGradient>
    <linearGradient x1="1310.84" y1="314.98001" x2="1302.3" y2="371.73999" id="linearGradient6557" xlink:href="#linearGradient6551" gradientUnits="userSpaceOnUse"/>
    <linearGradient x1="1146.92" y1="148.74001" x2="1134.27" y2="142.72" id="linearGradient7042" xlink:href="#linearGradient6539" gradientUnits="userSpaceOnUse"/>
    <linearGradient x1="1166.2" y1="127.05" x2="1205.39" y2="127.05" id="linearGradient7020" xlink:href="#linearGradient6539" gradientUnits="userSpaceOnUse"/>
    <linearGradient x1="1154.38" y1="162.96001" x2="1169.0601" y2="162.96001" id="linearGradient7044" xlink:href="#linearGradient6539" gradientUnits="userSpaceOnUse"/>
    <linearGradient x1="1179.49" y1="151.63" x2="1193.0699" y2="142.34" id="linearGradient6547" xlink:href="#linearGradient6539" gradientUnits="userSpaceOnUse"/>
    <linearGradient x1="1150.41" y1="109.3" x2="1161.01" y2="105.93" id="linearGradient7030" xlink:href="#linearGradient6539" gradientUnits="userSpaceOnUse"/>
    <linearGradient x1="1130.41" y1="118.56" x2="1133.38" y2="109.05" id="linearGradient7034" xlink:href="#linearGradient6539" gradientUnits="userSpaceOnUse"/>
    <linearGradient x1="1137.88" y1="110.24" x2="1146.5" y2="104.81" id="linearGradient7032" xlink:href="#linearGradient6539" gradientUnits="userSpaceOnUse"/>
    <linearGradient x1="1156.24" y1="106.35" x2="1168.4" y2="106.35" id="linearGradient7028" xlink:href="#linearGradient6539" gradientUnits="userSpaceOnUse"/>
    <linearGradient x1="1129.42" y1="127.66" x2="1130.6899" y2="119.94" id="linearGradient7036" xlink:href="#linearGradient6539" gradientUnits="userSpaceOnUse"/>
    <linearGradient x1="1130.45" y1="141.56" x2="1128.66" y2="130.74001" id="linearGradient7038" xlink:href="#linearGradient6539" gradientUnits="userSpaceOnUse"/>
    <linearGradient x1="1132.8" y1="149.12" x2="1125.08" y2="138.08" id="linearGradient7040" xlink:href="#linearGradient6539" gradientUnits="userSpaceOnUse"/>
    <linearGradient x1="1140.3199" y1="160.03999" x2="1157.29" y2="160.03999" id="linearGradient7046" xlink:href="#linearGradient6539" gradientUnits="userSpaceOnUse"/>
    <linearGradient x1="1175.5" y1="166.17999" x2="1182.9301" y2="161.71001" id="linearGradient6545" xlink:href="#linearGradient6539" gradientUnits="userSpaceOnUse"/>
    <linearGradient x1="1186.0699" y1="141.27" x2="1192.9301" y2="134.55" id="linearGradient6549" xlink:href="#linearGradient6539" gradientUnits="userSpaceOnUse"/>
    <linearGradient x1="1186.23" y1="127.11" x2="1187.85" y2="111.92" id="linearGradient7022" xlink:href="#linearGradient6539" gradientUnits="userSpaceOnUse"/>
    <linearGradient x1="1163.72" y1="111.18" x2="1194.91" y2="111.18" id="linearGradient7024" xlink:href="#linearGradient6539" gradientUnits="userSpaceOnUse"/>
    <linearGradient id="linearGradient6539">
      <stop style="stop-color:#c6bc7f;stop-opacity:1" offset="0" id="stop6541"/>
      <stop style="stop-color:#f1eedf;stop-opacity:1" offset="1" id="stop6543"/>
    </linearGradient>
    <linearGradient x1="1160.6" y1="107.26" x2="1182.4399" y2="107.26" id="linearGradient7026" xlink:href="#linearGradient6539" gradientUnits="userSpaceOnUse"/>
    <linearGradient x1="1075.76" y1="159.89" x2="1160.67" y2="179.91" id="linearGradient6447" xlink:href="#linearGradient4014" gradientUnits="userSpaceOnUse" gradientTransform="matrix(0.3493107,0,0,0.3493107,568.90596,210.54496)"/>
    <radialGradient cx="928.53998" cy="255.11" r="68" fx="928.53998" fy="255.11" id="radialGradient6634" xlink:href="#linearGradient4177" gradientUnits="userSpaceOnUse" gradientTransform="matrix(-1.1252112,0,-2.902142e-7,0.5345202,2031.694,146.39391)"/>
    <radialGradient cx="753" cy="-3" r="49" fx="753" fy="-3" id="radialGradient6621" xlink:href="#linearGradient6650" gradientUnits="userSpaceOnUse"/>
    <radialGradient cx="753" cy="-3" r="49" fx="753" fy="-3" id="radialGradient4712" xlink:href="#linearGradient6657" gradientUnits="userSpaceOnUse" gradientTransform="matrix(1.2980269,0,0,0.2447553,-34.414271,334.71389)"/>
    <linearGradient id="linearGradient4177">
      <stop style="stop-color:#b4c0ac;stop-opacity:1" offset="0" id="stop4179"/>
      <stop style="stop-color:#9aa79a;stop-opacity:1" offset="0.41036868" id="stop6322"/>
      <stop style="stop-color:#4e5b5b;stop-opacity:1" offset="1" id="stop4181"/>
    </linearGradient>
    <radialGradient cx="928.53998" cy="255.11" r="68" fx="928.53998" fy="255.11" id="radialGradient4175" xlink:href="#linearGradient4177" gradientUnits="userSpaceOnUse" gradientTransform="matrix(1.6516861,0,4.260025e-7,0.5701701,-600.77093,125.35545)"/>
    <linearGradient id="linearGradient6657">
      <stop style="stop-color:#000000;stop-opacity:1" offset="0" id="stop6659"/>
      <stop style="stop-color:#4e4b32;stop-opacity:0" offset="1" id="stop6661"/>
    </linearGradient>
    <radialGradient cx="753" cy="-3" r="49" fx="753" fy="-3" id="radialGradient4173" xlink:href="#linearGradient6657" gradientUnits="userSpaceOnUse"/>
    <filter id="filter7230">
      <feGaussianBlur stdDeviation="1.0119594" inkscape:collect="always" id="feGaussianBlur7232"/>
    </filter>
    <linearGradient x1="985.64001" y1="295.14001" x2="1015.11" y2="346.17999" id="linearGradient5097" xlink:href="#linearGradient4108" gradientUnits="userSpaceOnUse"/>
    <linearGradient id="linearGradient4127">
      <stop style="stop-color:#c0caba;stop-opacity:1" offset="0" id="stop4129"/>
      <stop style="stop-color:#9daca0;stop-opacity:1" offset="0.43632442" id="stop6324"/>
      <stop style="stop-color:#4d5a5a;stop-opacity:1" offset="1" id="stop4131"/>
    </linearGradient>
    <radialGradient cx="930.48999" cy="236.12" r="68" fx="930.48999" fy="236.12" id="radialGradient4133" xlink:href="#linearGradient4127" gradientUnits="userSpaceOnUse" gradientTransform="matrix(1.4677199,0,7.2682116e-7,0.7717973,-430.70398,77.760558)"/>
    <radialGradient cx="753" cy="-3" r="49" fx="753" fy="-3" id="radialGradient4151" xlink:href="#linearGradient6650" gradientUnits="userSpaceOnUse"/>
    <linearGradient id="linearGradient4309">
      <stop style="stop-color:#dada96;stop-opacity:1" offset="0" id="stop4311"/>
      <stop style="stop-color:#a2ac3b;stop-opacity:1" offset="1" id="stop4313"/>
    </linearGradient>
    <radialGradient cx="594.14001" cy="252.63" r="81.779999" fx="578.03003" fy="228.67" id="radialGradient3761" xlink:href="#linearGradient4309" gradientUnits="userSpaceOnUse" gradientTransform="matrix(0.5338938,0.2763417,-0.9052681,1.7489815,455.40421,-349.00273)"/>
    <linearGradient id="linearGradient4303">
      <stop style="stop-color:#c1b777;stop-opacity:1" offset="0" id="stop4305"/>
      <stop style="stop-color:#59542d;stop-opacity:1" offset="1" id="stop4307"/>
    </linearGradient>
    <radialGradient cx="591.54999" cy="387.59" r="53.919998" fx="591.54999" fy="387.59" id="radialGradient3759" xlink:href="#linearGradient4303" gradientUnits="userSpaceOnUse" gradientTransform="matrix(0.6666242,-2.6345555,0.3753246,9.4968863e-2,58.373717,1748.0102)"/>
    <filter id="filter3747">
      <feGaussianBlur stdDeviation="3.1777655" inkscape:collect="always" id="feGaussianBlur3749"/>
    </filter>
    <linearGradient id="linearGradient4014">
      <stop style="stop-color:#aad559;stop-opacity:1" offset="0" id="stop4016"/>
      <stop style="stop-color:#506b31;stop-opacity:1" offset="0.67002672" id="stop5275"/>
      <stop style="stop-color:#2f481c;stop-opacity:1" offset="1" id="stop4018"/>
    </linearGradient>
    <radialGradient cx="511.79999" cy="201.86" r="81.779999" fx="495.69" fy="177.89999" id="radialGradient4020" xlink:href="#linearGradient4014" gradientUnits="userSpaceOnUse" gradientTransform="matrix(0.703473,0.5323623,-1.4552881,1.9230421,501.63471,-497.61796)"/>
    <linearGradient id="linearGradient4005">
      <stop style="stop-color:#d0c898;stop-opacity:1" offset="0" id="stop4007"/>
      <stop style="stop-color:#938b4c;stop-opacity:1" offset="1" id="stop4009"/>
    </linearGradient>
    <radialGradient cx="588.23999" cy="261.20999" r="53.919998" fx="588.23999" fy="261.20999" id="radialGradient4011" xlink:href="#linearGradient4005" gradientUnits="userSpaceOnUse" gradientTransform="matrix(0.6556836,-2.3176761,0.3516259,9.9476947e-2,74.197869,1543.5029)"/>
    <linearGradient x1="941.87" y1="187.75999" x2="941.87" y2="342.47" id="linearGradient4098" xlink:href="#linearGradient4108" gradientUnits="userSpaceOnUse"/>
    <filter id="filter7189">
      <feGaussianBlur stdDeviation="1.1552372" inkscape:collect="always" id="feGaussianBlur7191"/>
    </filter>
    <linearGradient id="linearGradient6650">
      <stop style="stop-color:#000000;stop-opacity:1" offset="0" id="stop6652"/>
      <stop style="stop-color:#858055;stop-opacity:0" offset="1" id="stop6654"/>
    </linearGradient>
    <linearGradient x1="137.89" y1="549.76001" x2="137.89" y2="346.04999" id="linearGradient3832" xlink:href="#linearGradient6650" gradientUnits="userSpaceOnUse"/>
    <filter id="filter7185">
      <feGaussianBlur stdDeviation="0.96219967" inkscape:collect="always" id="feGaussianBlur7187"/>
    </filter>
    <linearGradient x1="446" y1="116" x2="447.17001" y2="290" id="linearGradient4063" xlink:href="#linearGradient3935" gradientUnits="userSpaceOnUse" gradientTransform="matrix(-0.7071068,0.7071067,0.7071067,0.7071068,1040.592,-270.73509)"/>
    <linearGradient id="linearGradient3900">
      <stop style="stop-color:#3c4d22;stop-opacity:1" offset="0" id="stop3902"/>
      <stop style="stop-color:#5e781c;stop-opacity:1" offset="1" id="stop3904"/>
    </linearGradient>
    <radialGradient cx="588.46997" cy="259.07001" r="125.26" fx="588.46997" fy="259.07001" id="radialGradient4066" xlink:href="#linearGradient3900" gradientUnits="userSpaceOnUse" gradientTransform="matrix(0.1626111,-0.1608763,-1.1884651,-1.2012769,1118.2185,641.79042)"/>
    <linearGradient id="linearGradient3920">
      <stop style="stop-color:#6b9223;stop-opacity:1" offset="0" id="stop3922"/>
      <stop style="stop-color:#909050;stop-opacity:1" offset="1" id="stop3924"/>
    </linearGradient>
    <linearGradient x1="446.82999" y1="194.28" x2="385.29999" y2="198.99001" id="linearGradient4069" xlink:href="#linearGradient3920" gradientUnits="userSpaceOnUse" gradientTransform="matrix(-0.7071068,0.7071067,0.7071067,0.7071068,1040.592,-270.73509)"/>
    <filter id="filter7193">
      <feGaussianBlur stdDeviation="1.4106033" inkscape:collect="always" id="feGaussianBlur7195"/>
    </filter>
    <linearGradient id="linearGradient4108">
      <stop style="stop-color:#000000;stop-opacity:0" offset="0" id="stop4110"/>
      <stop style="stop-color:#000000;stop-opacity:1" offset="1" id="stop4112"/>
    </linearGradient>
    <linearGradient x1="1036.17" y1="248.10001" x2="946.19" y2="301.76001" id="linearGradient4106" xlink:href="#linearGradient4108" gradientUnits="userSpaceOnUse"/>
    <linearGradient id="linearGradient3935">
      <stop style="stop-color:#dada96;stop-opacity:1" offset="0" id="stop3937"/>
      <stop style="stop-color:#b5bf47;stop-opacity:1" offset="1" id="stop3939"/>
    </linearGradient>
    <linearGradient x1="442.63" y1="73.300003" x2="447.22" y2="224.47" id="linearGradient4073" xlink:href="#linearGradient3935" gradientUnits="userSpaceOnUse" gradientTransform="matrix(0.8274019,0.47296,-0.4118419,0.7035082,748.42325,-172.58625)"/>
    <linearGradient id="linearGradient5251">
      <stop style="stop-color:#455927;stop-opacity:1" offset="0" id="stop5253"/>
      <stop style="stop-color:#5e781c;stop-opacity:1" offset="1" id="stop5255"/>
    </linearGradient>
    <radialGradient cx="588.46997" cy="259.07001" r="125.26" fx="588.46997" fy="259.07001" id="radialGradient4076" xlink:href="#linearGradient5251" gradientUnits="userSpaceOnUse" gradientTransform="matrix(-0.1897651,-0.1073219,0.688436,-1.1930747,948.54216,599.1882)"/>
    <linearGradient id="linearGradient5269">
      <stop style="stop-color:#6b9223;stop-opacity:1" offset="0" id="stop5271"/>
      <stop style="stop-color:#baba82;stop-opacity:1" offset="1" id="stop5273"/>
    </linearGradient>
    <linearGradient x1="446.82999" y1="194.28" x2="390.94" y2="186.77" id="linearGradient4079" xlink:href="#linearGradient5269" gradientUnits="userSpaceOnUse" gradientTransform="matrix(0.8274019,0.47296,-0.4118419,0.7035082,748.42325,-172.58625)"/>
    <filter id="filter7181">
      <feGaussianBlur inkscape:collect="always" id="feGaussianBlur7183" stdDeviation="5.2055912"/>
    </filter>
    <linearGradient id="linearGradient10900">
      <stop style="stop-color:#dcc890;stop-opacity:1" offset="0" id="stop10902"/>
      <stop style="stop-color:#fdfdfd;stop-opacity:0" offset="1" id="stop10904"/>
    </linearGradient>
    <linearGradient id="linearGradient11066">
      <stop style="stop-color:#dcc890;stop-opacity:1" offset="0" id="stop11068"/>
      <stop style="stop-color:#ede2c4;stop-opacity:0" offset="1" id="stop11070"/>
    </linearGradient>
    <linearGradient id="linearGradient6810">
      <stop style="stop-color:#ffffff;stop-opacity:1" offset="0" id="stop6812"/>
      <stop style="stop-color:#76a8b1;stop-opacity:0" offset="1" id="stop6814"/>
    </linearGradient>
    <linearGradient id="linearGradient10708">
      <stop style="stop-color:#ffffff;stop-opacity:1" offset="0" id="stop10710"/>
      <stop style="stop-color:#ffffff;stop-opacity:0" offset="1" id="stop10712"/>
    </linearGradient>
    <radialGradient cx="1052" cy="347.34998" r="38" fx="1052" fy="347.34998" id="radialGradient22314" xlink:href="#linearGradient22358" gradientUnits="userSpaceOnUse" gradientTransform="matrix(0.4215326,0,0,0.4214697,-186.73947,89.465663)"/>
    <radialGradient cx="866" cy="343.34375" r="96" fx="866" fy="343.34375" id="radialGradient22317" xlink:href="#linearGradient10708" gradientUnits="userSpaceOnUse" gradientTransform="matrix(-0.2589901,0,0,-0.2589515,505.9356,311.05523)"/>
    <radialGradient cx="866" cy="343.34375" r="96" fx="866" fy="343.34375" id="radialGradient22321" xlink:href="#linearGradient11066" gradientUnits="userSpaceOnUse" gradientTransform="matrix(-0.8423869,0,0,-0.8422614,941.33267,564.31488)"/>
    <radialGradient cx="976.99994" cy="417.34375" r="74.5" fx="976.99988" fy="417.34375" id="radialGradient22323" xlink:href="#linearGradient10900" gradientUnits="userSpaceOnUse" gradientTransform="matrix(0.7306619,0,0,0.730553,-502.03097,-29.762051)"/>
    <radialGradient cx="535.40997" cy="38.32" r="138.5" fx="483.75" fy="39.490002" id="radialGradient22326" xlink:href="#linearGradient6810" gradientUnits="userSpaceOnUse" gradientTransform="matrix(0,0.3093621,1.1672897,6.289124e-8,202.27596,-11.411631)"/>
    <radialGradient cx="535.40997" cy="38.32" r="138.5" fx="459.57999" fy="36.82" id="radialGradient22349" xlink:href="#linearGradient6810" gradientUnits="userSpaceOnUse" gradientTransform="matrix(0,0.1379924,0.520675,2.8052931e-8,376.6749,105.27516)"/>
    <radialGradient cx="866" cy="343.34375" r="96" fx="866" fy="343.34375" id="radialGradient23341" xlink:href="#linearGradient11066" gradientUnits="userSpaceOnUse" gradientTransform="matrix(-0.297092,0,0,-0.2970471,403.10731,414.11894)"/>
    <radialGradient cx="976.99994" cy="417.34375" r="74.5" fx="976.99988" fy="417.34375" id="radialGradient23343" xlink:href="#linearGradient10900" gradientUnits="userSpaceOnUse" gradientTransform="matrix(0.2576889,0,0,0.25765,-105.93644,204.60109)"/>
    <radialGradient cx="592.46161" cy="232.32686" r="53.919998" fx="592.46161" fy="232.32686" id="radialGradient23392" xlink:href="#linearGradient4005" gradientUnits="userSpaceOnUse" gradientTransform="matrix(1.2828052,-1.8690891,0.1782958,0.1223691,-248.13093,1273.0332)"/>
    <radialGradient cx="511.79999" cy="201.86" r="81.779999" fx="495.69" fy="177.89999" id="radialGradient23394" xlink:href="#linearGradient4014" gradientUnits="userSpaceOnUse" gradientTransform="matrix(0.6015015,0.4754837,-1.2998023,1.6442887,523.62367,-411.31691)"/>
    <radialGradient cx="66.404701" cy="1073.7356" r="178.29958" fx="66.404701" fy="1073.7356" id="radialGradient23451" xlink:href="#linearGradient23445" gradientUnits="userSpaceOnUse" gradientTransform="matrix(1.0403788e-7,0.92662,-1.9891692,0,2319.2612,301.86624)"/>
  </defs>
  <path d="M 46.73196,363.9417 C 26.782305,389.33247 83.306573,381.1862 98.665772,380.9825 C 142.45373,380.40175 234.01953,376.9119 230.04263,383.07185 C 225.20503,390.56495 104.15801,372.08141 71.265464,386.07551 C 58.851648,391.35695 45.023292,413.13499 73.751743,417.28197 C 92.428621,419.97799 110.22338,415.5866 120.93152,436.34917 C 130.97935,455.8314 172.44594,439.72548 196.93006,448.89711 C 221.77541,458.20404 259.22851,440.41722 290.76606,439.68914 C 316.20997,439.10174 365.38668,452.48231 373.17599,436.25373 C 376.70714,428.89679 357.93345,434.82432 361.67603,418.48209 C 369.1566,385.81764 300.02054,406.68683 272.77133,407.72183 C 261.46936,408.15111 236.66546,408.33402 262.14609,404.57962 C 296.76121,399.47931 331.48772,388.26865 366.25055,394.33207 C 379.74621,396.68601 418.22126,378.33522 387.53047,378.38976 C 354.2208,378.44894 321.4087,371.71899 288.78212,373.29983 C 210.41769,377.09677 131.43981,374.88261 53.73417,365.69167 C 51.341297,365.40864 48.156471,362.12866 46.73196,363.9417 z M 201.57571,398.3792 C 200.99842,403.1913 143.36935,400.42039 175.64535,398.3751 C 184.25956,397.82922 202.01189,394.74338 201.57571,398.3792 z M 176.48196,420.4417 C 191.13199,422.23555 232.04279,422.77701 228.37446,423.91683 C 210.46654,429.48114 153.43665,429.2918 152.16145,422.17921 C 151.40817,417.97774 168.3699,419.4484 176.48196,420.4417 z M 323.45071,424.03545 C 366.72467,426.52991 269.79411,435.85463 301.22431,425.26113 C 308.21824,422.90383 316.0519,423.60895 323.45071,424.03545 z" style="fill:url(#radialGradient23451);fill-opacity:1" id="path12143"/>
  <g transform="matrix(-1.1014381,-0.4749514,-0.4749514,1.1014381,860.82588,219.32507)" id="g23386">
    <path d="M 631.08,112.52 C 571.32,152.2 552.53,224 550.43,341.91 C 551.21,352.79 534.8,354.39 535.08,343.49 L 535.08,343.49 C 537.13,232.35 562.64,144.38 628.99,106.65 C 649.16,95.18 645.24,103.12 631.08,112.52 z" style="fill:url(#radialGradient23392);fill-opacity:1" id="path23388"/>
    <path d="M 628.46589,87.792556 C 622.52011,93.45427 614.06672,105.07156 622.04014,112.46705 C 632.84442,108.64686 628.28958,94.71787 628.46589,87.792556 z M 643.10015,90.427506 C 637.61475,93.415088 629.083,100.3404 633.49091,107.35388 C 642.19898,106.678 641.60146,95.481908 643.10015,90.427506 z M 611.91175,95.756178 C 604.79053,102.51497 594.69152,116.44396 604.22239,125.28917 C 617.15226,120.72453 611.69625,104.03325 611.91175,95.756178 z M 657.18587,96.63776 C 652.65062,97.303844 643.10995,95.39375 641.44474,102.78924 C 646.93993,107.45183 653.93381,100.99669 657.18587,96.63776 z M 587.08053,102.48559 C 579.63606,113.87758 570.41863,135.87794 586.10099,144.79171 C 602.1066,134.51639 589.42162,113.73065 587.08053,102.48559 z M 640.4652,108.66645 C 636.83112,108.80359 633.34398,109.78312 632.10976,113.87758 C 637.25232,118.91239 644.65761,112.96661 648.21332,108.85256 C 646.21507,108.99949 643.29606,108.5685 640.4652,108.66645 z M 626.57539,118.06999 C 623.15681,118.11897 620.04189,119.33359 617.81834,122.93828 C 623.26456,132.14591 636.20422,126.42543 642.88465,121.89018 C 638.70204,121.09676 632.25669,117.97204 626.57539,118.06999 z M 556.84227,125.69078 C 555.06931,139.18877 556.32312,163.00127 574.31718,164.22569 C 584.27906,148.02418 563.82636,134.80045 556.84227,125.69078 z M 615.94743,131.99898 C 609.44332,132.1655 603.42897,134.14417 600.70586,141.36334 C 610.43265,152.30475 626.3501,141.27518 634.12761,133.4389 C 629.47481,133.45849 622.45155,131.82267 615.94743,131.99898 z M 530.51236,144.90926 C 531.21763,162.33519 538.08417,192.09347 561.642,189.76218 C 570.93779,167.1545 541.57132,154.91031 530.51236,144.90926 z M 616.29027,154.70461 C 604.95705,156.6147 580.98782,152.35373 577.2264,170.99428 C 591.23376,182.36669 608.37562,165.79295 616.29027,154.70461 z M 508.84504,181.58306 C 513.47825,201.43824 527.78926,234.13513 553.65878,226.36741 C 559.06582,198.41148 523.44012,190.67315 508.84504,181.58306 z M 612.30356,182.44505 C 597.58115,185.67752 565.90297,181.66142 562.20033,206.34571 C 581.31106,220.34327 602.66493,197.49071 612.30356,182.44505 z M 609.60984,201.38926 C 592.8304,211.8409 551.87603,220.76447 558.09608,252.90302 C 587.84456,261.83638 604.28117,224.21243 609.60984,201.38926 z M 490.10653,220.57836 C 495.78784,244.89042 513.27254,284.95342 544.96051,275.43233 C 551.59196,241.19758 507.99285,231.71567 490.10653,220.57836 z M 607.10223,246.50666 C 589.22571,257.64397 545.6168,267.12588 552.24825,301.36063 C 583.93622,310.88172 601.42092,270.81872 607.10223,246.50666 z" style="fill:url(#radialGradient23394);fill-opacity:1" id="path23390"/>
  </g>
  <g transform="matrix(0.7326636,0,0,0.7326636,20.627094,59.882405)" id="g6967">
    <use transform="matrix(1.9803108,0,0,1.9803108,-491.13328,-487.40425)" id="use23435" x="0" y="0" width="397.1575" height="359.88495" xlink:href="#g5032"/>
    <g transform="translate(-733.00503,151.14987)" id="g4187">
      <g id="g5099">
        <path d="M 981.12751,273.09236 C 951.58182,254.17546 941.37286,229.19205 950.61223,207.01288 C 972.2985,219.78752 978.98013,193.10891 964.67522,183.85602 C 999.0957,149.29696 999.07024,127.85424 1051.5365,106.9881 C 1056.4382,114.11525 1068.3001,106.5323 1060.9657,99.759858 C 1071.9507,91.276217 1081.4784,83.609017 1088.1828,77.024465 C 1088.8485,87.715109 993.39152,282.89348 981.12751,273.09236 z" style="fill:url(#linearGradient4079);fill-opacity:1" id="path4043"/>
        <path d="M 981.74912,272.984 C 994.45726,276.25644 1087.9477,87.014173 1088.1828,77.024465 C 1089.6473,91.365757 1089.7374,109.43661 1088.2819,128.8823 C 1072.0107,130.29894 1075.442,150.14814 1085.7106,153.16971 C 1083.8391,166.89962 1082.4403,171.18083 1079.0176,184.52941 C 1063.8062,179.48251 1046.9056,200.20147 1071.3163,215.83992 C 1062.6979,231.50458 1051.9341,251.93237 1037.4802,265.36175 C 1023.0654,278.74682 1004.9966,285.17592 981.74912,272.984 z" style="fill:url(#radialGradient4076);fill-opacity:1" id="path4045"/>
        <path d="M 982.07989,274.5804 C 972.32857,269.00225 1066.9706,132.20045 1088.7157,77.332116 C 1072.57,138.41863 987.16953,277.48745 982.07989,274.5804 z" style="fill:url(#linearGradient4073);fill-opacity:1" id="path4047"/>
      </g>
      <path d="M 967.19,172.22 C 966.55,172.5 965.93,172.78 965.28,173.06 C 965.7,173.66 966.07,174.26 966.41,174.88 C 966.61,173.98 966.86,173.08 967.19,172.22 z M 967.94,189.13 C 964.86,200.07 952.53,206.94 940.66,191.47 C 921.52,210.88 921.67,241.48 944.72,273.94 C 945,274.44 945.46,274.74 946.09,274.88 C 951.18,280.71 956.45,285.05 961.81,288.13 C 962.02,288.01 962.23,287.87 962.38,287.66 C 988.35,258.25 1009.97,216.24 992.94,191.59 C 981.9,203.1 972.06,198.16 967.94,189.13 z" style="fill:url(#linearGradient4106);filter:url(#filter7193)" id="path4057"/>
      <g id="g4315">
        <path d="M 959.98,280.81 C 984.47,253.27 985.95,222.94 967.67,199.87 C 949.27,218.83 932.03,190.14 943.85,176.7 C 930.12,165.77 913.73,155.46 896.42,145.77 C 886.01,165.42 855.58,153.68 864.45,128.93 C 849.82,121.59 835.27,114.69 821.76,108.22 C 819.2,117.29 803.63,111.22 808.93,102.05 C 793.96,94.78 780.86,88.13 771.18,82.11 C 774.52,94.31 950.56,294.43 959.98,280.81 z" style="fill:url(#linearGradient4069);fill-opacity:1" id="path3886"/>
        <path d="M 959.27,280.81 C 946.91,287.17 775.21,93.33 771.18,82.11 C 775.04,98.59 781.78,119 790.7,140.63 C 808.65,138.82 812.49,161.92 802.63,167.48 C 809.83,182.57 817.9,197.72 826.61,212.06 C 840.99,203.17 851.37,226.54 841.75,235.15 C 850.56,247.55 859.82,258.8 869.35,268.2 C 892.6,260.25 906.15,271.91 900.96,291.3 C 922.66,301.31 938.99,303.62 959.27,280.81 z" style="fill:url(#radialGradient4066);fill-opacity:1" id="path3890"/>
        <path d="M 959.52,282.68 C 957.93,273.24 807.84,139.13 770.72,82.57 C 811.12,148.08 960.54,288.75 959.52,282.68 z" style="fill:url(#linearGradient4063);fill-opacity:1" id="path3888"/>
        <path d="M 74.94,316.09 C 73.99,316.11 73.08,316.22 72.19,316.44 C 71.47,317.31 70.62,318.06 69.63,318.63 C 70.54,320.54 71.47,322.46 72.41,324.38 C 80.41,324.66 86.83,327.41 88.59,323.97 C 95.54,333.63 101.18,344.21 100.59,353.88 C 100.18,356.25 99.58,358.76 98.81,361.28 C 101.27,361 103.54,361.65 105.47,362.91 C 107.07,358.73 108.56,353.65 106.5,349.78 C 104.73,343.89 102.36,337.38 98.88,331.28 C 103.34,333.96 108.53,337.61 112.53,343.94 C 110.53,328.55 105,322.16 90.16,320.22 C 90.14,320.24 90.14,320.26 90.13,320.28 C 89.37,320.18 88.61,320.21 88,320.41 C 84.66,318.49 81.69,317.2 79,316.56 C 77.58,316.23 76.23,316.07 74.94,316.09 z M 133.53,344 C 116.23,345.29 117.25,358.89 109.25,366.72 C 110.12,367.99 110.84,369.41 111.38,370.91 C 113.36,369.68 115.2,368.36 116.63,366.75 C 117.19,363.12 118.84,361.26 121.19,360.59 C 119.75,363.74 127.75,370.18 124.78,378.91 C 133.6,372.1 134.68,367.14 127.19,360.69 C 130.05,361.27 133.27,362.41 136.5,363.59 C 131.66,370.94 150.84,374.4 157.31,391.91 C 159.95,375.09 155.3,367.14 137.78,362.06 C 137.43,362.4 137.16,362.74 136.91,363.06 C 129.58,359.75 122.04,355.16 125.13,351.16 C 127.15,350.37 132.02,348.4 135.72,346.63 C 136.09,349.11 137.91,350.46 140.63,351.69 C 138.26,349.14 135.9,346.57 133.53,344 z M 110.03,388.13 C 113.87,393.46 117.82,398.54 121.81,403.38 C 123.57,399.44 123.34,396.3 120.81,393.38 C 122.16,393.65 123.47,393.9 124.97,394.22 C 123.91,399.55 135.57,399.75 142.63,410.69 C 142.1,406.99 141.31,403.99 140.13,401.56 C 145.54,403.83 154.96,402.51 167.22,410.94 C 156.18,396.83 148.27,392.2 137.5,395.13 C 131.93,392.2 123.03,390.23 114.81,388.84 C 114.43,388.63 114.06,388.4 113.66,388.19 C 113.39,388.3 113.13,388.42 112.91,388.53 C 111.89,388.37 111,388.27 110.03,388.13 z" transform="translate(733.00503,-151.14987)" style="fill:#000000;fill-opacity:0.295082;filter:url(#filter7185)" id="path3732"/>
      </g>
      <path d="M 152.28,404.81 C 150.87,405.81 147.41,406.78 148.44,409.59 C 151.11,410.25 151.98,406.85 152.28,404.81 z M 146.47,405.09 C 145.48,406.7 144.59,409.58 145.97,411.47 C 145.77,411.78 145.56,412.14 145.34,412.53 C 144.32,410.35 142.1,408.2 141.19,406.69 C 140.66,409.24 141.03,413.61 143.91,415.53 C 143.59,416.35 143.34,417.18 143.16,418 C 141.46,415.83 139.13,413.74 137.97,412.22 C 137.79,415.26 138.93,420.51 142.75,422.84 C 142.8,424.06 142.98,425.29 143.22,426.53 C 139.84,423.45 135.1,420.84 132.5,418.78 C 133.92,423.58 138.41,431.73 145.22,433.38 C 145.75,434.82 146.34,436.34 146.97,437.88 C 142.38,434.47 135.17,433.48 130.84,432 C 134.91,436.6 142.86,443.8 149.03,442.88 C 149.95,445.11 150.88,447.46 151.78,449.94 C 146.35,444.21 134.55,444.49 127.53,443.09 C 133.58,448.84 144.51,457.58 153.13,453.81 C 154.17,457.06 155.1,460.54 155.81,464.28 C 151.34,457.51 136.99,460 128.44,459.34 C 135.12,465.28 146.04,473.79 156.38,467.59 C 157.99,478.57 157.59,491.8 152.59,508.38 C 154.31,512.06 159.53,508.82 157.47,505.31 C 159.29,499.7 160.49,494.46 161.19,489.56 C 171.7,487.36 177.69,478.47 176.13,465.84 C 173.12,471.3 164.4,476.59 161.78,483.75 C 162,480.56 162.04,477.52 161.88,474.63 C 169.43,471.42 173.92,462.04 171.75,454.13 C 170.84,458.37 164.34,461.97 160.97,466.69 C 160.52,464.03 159.92,461.52 159.25,459.09 C 165.38,458.7 166.14,448.48 164.5,442.16 C 163.21,444.69 158.4,447.41 156.91,451.81 C 155.94,449.2 154.9,446.73 153.88,444.34 C 160.37,445.55 159.13,437.02 157.25,431.88 C 156.04,433.82 151.81,435.78 151.75,439.53 C 147.85,430.68 144.7,423.11 146.38,415.34 C 148.16,412.26 148.64,409.69 148.03,409.41 C 148.03,409.4 148,409.41 148,409.41 C 147.65,407.86 146.74,406.2 146.47,405.09 z M 151.81,410.53 C 151.25,410.92 150.29,411.26 149.5,411.78 C 148.49,412.45 147.77,413.38 148.5,415 C 151.19,415.85 151.72,412.55 151.81,410.53 z M 153.44,415.91 C 152.16,416.35 149.65,416.4 148.22,417.41 C 147.36,418.01 146.92,418.97 147.47,420.59 C 151.61,422.84 152.97,418.62 153.44,415.91 z M 154.47,421.41 C 153.43,422.22 151.34,422.87 149.91,424.06 C 148.45,425.25 147.69,426.99 149.53,429.97 C 155.34,432.08 155.11,425.47 154.47,421.41 z M 129.84,475.91 C 134.77,483.19 143.63,493.75 156.59,485.28 C 159.65,472.73 140.23,476.76 129.84,475.91 z" transform="translate(753.29646,-246.00623)" style="fill:url(#linearGradient3832);fill-opacity:1;filter:url(#filter7189)" id="path3801"/>
      <path d="M 896.41,145.78 C 896.2,146.16 896,146.52 895.78,146.88 C 929.78,173.91 942.42,214.6 944.78,273.16 C 953.02,279.86 958.5,282.93 959.97,280.81 C 960.1,280.66 960.24,280.52 960.38,280.38 C 959.54,251.51 955.03,225.02 945.84,202 C 942.58,198.76 940.46,194 940.06,189.16 C 934.59,178.41 927.89,168.58 919.88,159.78 C 912.37,154.98 904.5,150.31 896.41,145.78 z" style="opacity:0.78835976;fill:url(#linearGradient4098);fill-opacity:1" id="path4036"/>
      <g transform="translate(409.23402,-66)" id="g3980">
        <path d="M 631.08,112.52 C 571.32,152.2 552.53,224 550.43,341.91 C 551.21,352.79 534.8,354.39 535.08,343.49 L 535.08,343.49 C 537.13,232.35 562.64,144.38 628.99,106.65 C 649.16,95.18 645.24,103.12 631.08,112.52 z" style="fill:url(#radialGradient4011);fill-opacity:1" id="path3978"/>
        <path d="M 628.52,85.28 C 622.45,91.06 613.82,102.92 621.96,110.47 C 632.99,106.57 628.34,92.35 628.52,85.28 z M 643.46,87.97 C 637.86,91.02 629.15,98.09 633.65,105.25 C 642.54,104.56 641.93,93.13 643.46,87.97 z M 611.62,93.41 C 604.35,100.31 594.04,114.53 603.77,123.56 C 616.97,118.9 611.4,101.86 611.62,93.41 z M 657.84,94.31 C 653.21,94.99 643.47,93.04 641.77,100.59 C 647.38,105.35 654.52,98.76 657.84,94.31 z M 586.27,100.28 C 578.67,111.91 569.26,134.37 585.27,143.47 C 601.61,132.98 588.66,111.76 586.27,100.28 z M 640.77,106.59 C 637.06,106.73 633.5,107.73 632.24,111.91 C 637.49,117.05 645.05,110.98 648.68,106.78 C 646.64,106.93 643.66,106.49 640.77,106.59 z M 626.59,116.19 C 623.1,116.24 619.92,117.48 617.65,121.16 C 623.21,130.56 636.42,124.72 643.24,120.09 C 638.97,119.28 632.39,116.09 626.59,116.19 z M 555.4,123.97 C 553.59,137.75 554.87,162.06 573.24,163.31 C 583.41,146.77 562.53,133.27 555.4,123.97 z M 615.74,130.41 C 609.1,130.58 602.96,132.6 600.18,139.97 C 610.11,151.14 626.36,139.88 634.3,131.88 C 629.55,131.9 622.38,130.23 615.74,130.41 z M 528.52,143.59 C 529.24,161.38 536.25,191.76 560.3,189.38 C 569.79,166.3 539.81,153.8 528.52,143.59 z M 616.09,153.59 C 604.52,155.54 580.05,151.19 576.21,170.22 C 590.51,181.83 608.01,164.91 616.09,153.59 z M 506.4,181.03 C 511.13,201.3 525.74,234.68 552.15,226.75 C 557.67,198.21 521.3,190.31 506.4,181.03 z M 612.02,181.91 C 596.99,185.21 564.65,181.11 560.87,206.31 C 580.38,220.6 602.18,197.27 612.02,181.91 z M 609.27,201.25 C 592.14,211.92 550.33,221.03 556.68,253.84 C 587.05,262.96 603.83,224.55 609.27,201.25 z M 487.27,220.84 C 493.07,245.66 510.92,286.56 543.27,276.84 C 550.04,241.89 505.53,232.21 487.27,220.84 z M 606.71,247.31 C 588.46,258.68 543.94,268.36 550.71,303.31 C 583.06,313.03 600.91,272.13 606.71,247.31 z" style="fill:url(#radialGradient4020);fill-opacity:1" id="path3958"/>
      </g>
      <g id="g3751">
        <g transform="matrix(0.3544114,-0.1657421,0.1244695,0.333926,667.20587,233.35486)" style="fill:#000000;fill-opacity:0.295082;filter:url(#filter3747)" id="g3721"/>
        <g transform="matrix(0.333926,-0.1657421,0.1657421,0.333926,675.28938,233.35486)" id="g3711">
          <path d="M 628.1,118.53 C 591.77,164.13 638.81,257.58 542.07,356.48 C 536.74,360.69 531.21,354.34 529.09,346.5 C 636.14,232.41 576.11,149.92 626.01,112.65 C 644.6,98.77 642.25,109.13 628.1,118.53 z" style="fill:url(#radialGradient3759);fill-opacity:1" id="path3713"/>
          <path d="M 628.98,85.53 C 623.98,91.89 618.8,105.62 627.72,113.6 C 636.1,108.26 629.58,93.02 628.98,85.53 z M 643.53,88.01 C 638.31,91.27 631.18,99.19 636.41,106.75 C 644.1,105.4 642.34,93.35 643.53,88.01 z M 614.55,95 C 609.82,103.29 605.78,120.91 617.4,130.97 C 626.19,123.91 616.42,104.59 614.55,95 z M 657.84,94.31 C 653.27,95.02 643.79,93.21 642.91,101.21 C 648.53,105.98 654.67,98.84 657.84,94.31 z M 593.58,104.25 C 591.06,118.65 592.56,147.02 610.96,157.42 C 619.47,142.68 600.01,117.92 593.58,104.25 z M 642.84,107.72 C 639.63,108.12 636.76,109.51 636.59,114.27 C 642.04,119.52 647.24,112.17 649.87,107.43 C 648.06,107.71 645.37,107.42 642.84,107.72 z M 633.03,119.69 C 630.26,120.13 628.08,121.92 627.46,126.49 C 634.74,136.82 642.99,128.29 647.34,122.32 C 643.73,121.86 637.68,118.97 633.03,119.69 z M 573.9,134.02 C 578.55,151.31 590.53,181.44 608.87,182.67 C 610.85,161.69 585.53,145.77 573.9,134.02 z M 629.17,137.7 C 624.25,138.81 620.36,142.05 621.24,151.41 C 632.68,163.41 639.95,147.27 643.25,136.74 C 639.79,137.46 634.03,136.56 629.17,137.7 z M 552.71,156.74 C 560.64,178.44 577.26,214.05 603.9,213.06 C 606.84,186.43 570.49,170.46 552.71,156.74 z M 637.52,165.24 C 630.42,169.61 609.92,167.42 613.89,190.69 C 628.46,202.45 635.88,180.05 637.52,165.24 z M 535.51,196.85 C 544.65,219.51 561.21,253.95 594.72,249.88 C 602.32,222.47 557.72,210.1 535.51,196.85 z M 642.66,198.55 C 633.73,205.17 606.47,203.83 605.9,230.78 C 622.51,243.49 638.75,217.14 642.66,198.55 z M 645.79,235.95 C 634.7,249.9 593.72,244.61 591.13,272.57 C 615.08,278.19 641.15,259.69 645.79,235.95 z M 519.15,238.36 C 522.3,261.74 530.96,297.64 572.21,292.76 C 594.53,266.26 543.09,252.81 519.15,238.36 z M 642.37,269.35 C 625.18,281.28 586.68,281.86 578.07,308.46 C 605.98,315.76 631.06,301.56 642.37,269.35 z" style="fill:url(#radialGradient3761);fill-opacity:1" id="path3715"/>
        </g>
      </g>
      <g id="g4163">
        <path d="M 802,-3 C 802,24.06 780.06,46 753,46 C 725.94,46 704,24.06 704,-3 C 704,-30.06 725.94,-52 753,-52 C 780.06,-52 802,-30.06 802,-3 L 802,-3 z" transform="matrix(1.6326531,0,0,0.3994975,-286.38776,307.96626)" style="fill:url(#radialGradient4151);fill-opacity:1" id="path4135"/>
        <path d="M 1014,298 C 1014,316.77 983.54,315 946,315 C 908.46,315 878,316.77 878,298 C 878,279.23 890.46,252 928,252 C 965.54,252 1014,279.23 1014,298 z" style="fill:url(#radialGradient4133);fill-opacity:1" id="path4124"/>
        <path d="M 1014,307.56 C 1014,315.8 1003.02,315.02 989.49,315.02 C 982.84,315.02 982.82,314.86 978.41,314.07 C 984.98,299.53 996.66,295.16 999.97,295.13 C 1013.5,295.13 1014,299.32 1014,307.56 z" style="fill:url(#linearGradient5097);fill-opacity:1" id="path5093"/>
        <path d="M 127,449.16 C 127,458.56 134.65,462.8 147.01,464.69 C 151.28,447.15 137.66,440.58 128.09,441.81 C 126.62,445.52 126.89,445.23 127,449.16 z" transform="translate(751.00503,-151.14987)" style="fill:#000000;fill-opacity:0.20218578;filter:url(#filter7230)" id="path7201"/>
      </g>
      <g transform="matrix(0.43125,0,0,0.5934474,457.83125,137.16236)" id="g4167">
        <path d="M 802,-3 C 802,24.06 780.06,46 753,46 C 725.94,46 704,24.06 704,-3 C 704,-30.06 725.94,-52 753,-52 C 780.06,-52 802,-30.06 802,-3 L 802,-3 z" transform="matrix(1.6326531,0,0,0.3078522,-286.38776,308.68965)" style="fill:url(#radialGradient4173);fill-opacity:1" id="path4169"/>
        <path d="M 1014,298 C 1014,316.77 983.54,315 946,315 C 908.46,315 878,316.77 878,298 C 878,279.23 917.37,259.08 954.9,259.08 C 992.44,259.08 1014,279.23 1014,298 z" style="fill:url(#radialGradient4175);fill-opacity:1" id="path4171"/>
        <path d="M 1006.6,333.98 C 1006.6,340.6 978.13,345.97 943,345.97 C 907.87,345.97 879.4,340.6 879.4,333.98 C 879.4,327.36 907.87,321.99 943,321.99 C 978.13,321.99 1006.6,327.36 1006.6,333.98 L 1006.6,333.98 z" style="fill:url(#radialGradient4712);fill-opacity:1" id="path4710"/>
      </g>
    </g>
    <g transform="translate(-661.70856,159.14987)" id="g5032">
      <path d="M 802,-3 C 802,24.06 780.06,46 753,46 C 725.94,46 704,24.06 704,-3 C 704,-30.06 725.94,-52 753,-52 C 780.06,-52 802,-30.06 802,-3 L 802,-3 z" transform="matrix(-1.1122449,0,0,0.2279527,1817.5205,319.97904)" style="fill:url(#radialGradient6621);fill-opacity:1" id="path6617"/>
      <path d="M 931.63,308.24 C 931.63,325.84 952.38,324.18 977.96,324.18 C 1003.53,324.18 1024.28,325.84 1024.28,308.24 C 1024.28,290.65 982.61,283.07 957.04,283.07 C 931.47,283.07 931.63,290.65 931.63,308.24 z" style="fill:url(#radialGradient6634);fill-opacity:1" id="path6619"/>
      <path d="M 952.83,320.89 C 952.27,315.84 951.32,310.85 950.73,305.8 C 949.69,297.16 949.78,288.44 950.28,279.77 C 951.34,266.75 957.7,255.2 963.34,243.69 C 968.44,234.22 972.58,224.32 976.14,214.18 C 976.99,211.75 980.63,212.56 979.69,214.96 L 979.69,214.96 C 975.75,225.04 971.21,234.85 966.65,244.67 C 961.58,255.82 956.28,267.21 955.17,279.57 C 954.78,287.95 955.18,296.36 956.17,304.69 C 956.93,309.34 957.78,314.03 959.6,318.39 C 961.55,323.1 953.4,325.96 952.83,320.89 z" style="fill:url(#linearGradient6447)" id="path6445"/>
      <g transform="matrix(0.6496909,-0.2242836,0.2242836,0.6496909,193.45033,395.22162)" id="g6497">
        <path d="M 1160.99,122.43 C 1161.39,114.52 1173.16,87.08 1180.81,92.66 C 1187.79,97.77 1169.5,120.12 1160.99,122.43 z" style="fill:url(#linearGradient7026);fill-opacity:1" id="path6499"/>
        <path d="M 1163.9,124.09 C 1165.7,117.55 1187.98,90.68 1193.94,99.44 C 1200.96,109.76 1173.53,124.88 1163.9,124.09 z" style="fill:url(#linearGradient7024);fill-opacity:1" id="path6501"/>
        <path d="M 1165.63,126.73 C 1168.44,119.77 1199.28,103.31 1201.84,114 C 1204.15,123.66 1173.74,129.97 1165.63,126.73 z" style="fill:url(#linearGradient7022);fill-opacity:1" id="path6503"/>
        <path d="M 1195.33,145.6 C 1182.97,142.29 1165.12,134.82 1165.95,131.73 C 1166.77,128.64 1185.97,131.09 1198.33,134.4 C 1210.69,137.71 1211.56,140.64 1210.74,143.73 C 1209.91,146.82 1207.69,148.91 1195.33,145.6 z" style="fill:url(#linearGradient6549);fill-opacity:1" id="path6505"/>
        <path d="M 1175.67,174.19 C 1167.84,160.62 1158.86,138.71 1162.25,136.75 C 1165.64,134.79 1180.13,153.53 1187.96,167.09 C 1195.8,180.66 1194.02,183.95 1190.63,185.9 C 1187.24,187.86 1183.51,187.76 1175.67,174.19 z" style="fill:url(#linearGradient6545);fill-opacity:1" id="path6507"/>
        <path d="M 1142,166.93 C 1145.31,154.56 1152.78,136.72 1155.87,137.54 C 1158.96,138.37 1156.51,157.56 1153.19,169.93 C 1149.88,182.29 1146.96,183.16 1143.87,182.33 C 1140.78,181.51 1138.68,179.29 1142,166.93 z" style="fill:url(#linearGradient7046);fill-opacity:1" id="path6509"/>
        <path d="M 1118.72,147.9 C 1129.91,141.16 1148.37,133.11 1150.46,135.63 C 1152.55,138.14 1137.48,150.27 1126.29,157.01 C 1115.1,163.75 1112,162.55 1109.91,160.03 C 1107.82,157.52 1107.52,154.64 1118.72,147.9 z" style="fill:url(#linearGradient7040);fill-opacity:1" id="path6511"/>
        <path d="M 1120.48,133.21 C 1131.51,130.78 1148.94,129.12 1150.05,131.54 C 1151.16,133.97 1137.73,140.47 1126.69,142.89 C 1115.66,145.32 1111.18,142.75 1110.08,140.32 C 1108.97,137.9 1109.45,135.63 1120.48,133.21 z" style="fill:url(#linearGradient7038);fill-opacity:1" id="path6531"/>
        <path d="M 1126.81,119.77 C 1136.36,121.52 1150.31,126.08 1149.88,128.47 C 1149.44,130.86 1134.77,130.17 1125.22,128.42 C 1115.68,126.67 1114.84,124.51 1115.28,122.12 C 1115.71,119.74 1117.26,118.02 1126.81,119.77 z" style="fill:url(#linearGradient7036);fill-opacity:1" id="path6533"/>
        <path d="M 1157.46,123.52 C 1155.13,116.08 1156.62,86.76 1165.58,89.3 C 1173.76,91.62 1164.52,118.48 1157.46,123.52 z" style="fill:url(#linearGradient7028);fill-opacity:1" id="path6535"/>
        <path d="M 1152.86,123.58 C 1143.45,124.21 1122.91,98.97 1133.5,94.33 C 1141.74,90.71 1154.01,115.01 1152.86,123.58 z" style="fill:url(#linearGradient7032);fill-opacity:1" id="path6537"/>
        <path d="M 1132.22,109.5 C 1140.58,114.39 1152.12,123.4 1150.9,125.49 C 1149.68,127.58 1134.93,122.95 1126.57,118.07 C 1118.2,113.18 1119.38,109.89 1120.6,107.8 C 1121.82,105.71 1123.86,104.62 1132.22,109.5 z" style="fill:url(#linearGradient7034);fill-opacity:1" id="path6515"/>
        <path d="M 1155.36,121.95 C 1148.9,119.1 1139.61,92.83 1147.78,90.64 C 1160.6,87.21 1161.37,114.88 1155.36,121.95 z" style="fill:url(#linearGradient7030);fill-opacity:1" id="path6517"/>
        <path d="M 1188.16,160.53 C 1177.2,152.36 1164.13,137.31 1166.1,134.47 C 1168.07,131.63 1186.09,141.57 1197.05,149.74 C 1208.01,157.91 1207.78,161.24 1205.81,164.08 C 1203.84,166.92 1199.12,168.71 1188.16,160.53 z" style="fill:url(#linearGradient6547);fill-opacity:1" id="path6519"/>
        <path d="M 1154.74,172.22 C 1153.3,156.77 1156.46,139.35 1159.84,139.04 C 1163.22,138.72 1167.3,155.46 1168.74,170.92 C 1170.18,186.37 1166.54,186.47 1163.16,186.78 C 1159.78,187.1 1156.18,187.68 1154.74,172.22 z" style="fill:url(#linearGradient7044);fill-opacity:1" id="path6521"/>
        <path d="M 1193.45,131.93 C 1182.64,132.45 1166.33,131.04 1166.2,128.34 C 1166.07,125.63 1182.17,122.66 1192.98,122.14 C 1203.79,121.62 1205.25,123.75 1205.38,126.45 C 1205.51,129.15 1204.26,131.41 1193.45,131.93 z" style="fill:url(#linearGradient7020);fill-opacity:1" id="path6523"/>
        <path d="M 1129.25,158.08 C 1137.89,146.58 1153.14,131.11 1156,133.27 C 1158.85,135.43 1148.24,154.4 1139.61,165.89 C 1130.98,177.39 1127.58,177.08 1124.72,174.92 C 1121.86,172.76 1120.62,169.57 1129.25,158.08 z" style="fill:url(#linearGradient7042);fill-opacity:1" id="path6525"/>
        <path d="M 1349.4,342 C 1349.4,365.75 1334,385 1315,385 C 1296,385 1280.6,365.75 1280.6,342 C 1280.6,318.25 1296,299 1315,299 C 1334,299 1349.4,318.25 1349.4,342 z" transform="matrix(0.4504037,0,0,0.3229403,566.56771,20.594488)" style="fill:url(#linearGradient6557);fill-opacity:1" id="path6527"/>
        <path d="M 1349.4,342 C 1349.4,365.75 1334,385 1315,385 C 1296,385 1280.6,365.75 1280.6,342 C 1280.6,318.25 1296,299 1315,299 C 1334,299 1349.4,318.25 1349.4,342 z" transform="matrix(0.2729746,0,0,0.1533176,799.88704,73.590974)" style="fill:url(#linearGradient3346);fill-opacity:1" id="path6529"/>
      </g>
      <path d="M 962.91,283.22 C 960.06,291.37 957.57,299.54 956.13,307.66 C 955.21,312.71 954.69,317.7 953.75,322.75 C 953.67,323.18 953.67,323.55 953.72,323.88 C 955.5,324 957.35,324.08 959.28,324.13 C 960.52,323.19 961.44,321.84 961.25,320.25 C 960.73,315.89 961.29,311.2 961.91,306.56 C 963.27,298.91 965.19,291.17 967.72,283.47 C 966.09,283.35 964.47,283.28 962.91,283.22 z" style="fill:#000000;fill-opacity:0.19672134" id="path6625"/>
      <g transform="matrix(0.1102259,0.1045776,-7.4982383e-2,7.9032201e-2,841.01143,146.08408)" id="g6577">
        <path d="M 1174.37,245.88 C 1108.42,138.24 1311.05,106.72 1370.27,85.06 C 1366.43,96.6 1183.11,261.39 1174.37,245.88 z" style="fill:url(#linearGradient6582);fill-opacity:1" id="path6565"/>
        <path d="M 1175.07,246.02 C 1187.05,254.86 1365.79,95.47 1370.27,85.06 C 1347.32,151.93 1281.42,241.03 1236.94,261.67 C 1216.1,269.64 1194.36,268.72 1175.07,246.02 z" style="fill:url(#radialGradient6584);fill-opacity:1" id="path6567"/>
      </g>
      <g transform="matrix(-0.1453263,0,0,0.1089424,1129.0537,239.87567)" id="g6588">
        <path d="M 1174.37,245.88 C 1108.77,138.53 1309.03,107.45 1370.27,85.06 C 1366.43,96.6 1183.11,261.39 1174.37,245.88 z" style="fill:url(#linearGradient6594);fill-opacity:1" id="path6590"/>
        <path d="M 1175.07,246.02 C 1187.05,254.86 1365.79,95.47 1370.27,85.06 C 1344.46,158.54 1246.96,313.49 1175.07,246.02 z" style="fill:url(#radialGradient6596);fill-opacity:1" id="path6592"/>
      </g>
      <g id="g3682">
        <path d="M 278.22,530.09 C 277.51,530.24 276.82,530.39 276.19,530.56 C 274.16,536.49 273.93,542.8 274.88,548.91 C 275.14,550.64 279.47,549.95 278.78,548.34 C 277.79,544.99 277.33,541.5 277.22,538 C 277.06,535.27 277.5,532.64 278.22,530.09 z" transform="translate(666,-246.00623)" style="fill:#000000;fill-opacity:0.17486339" id="path3522"/>
        <path d="M 941.62,302.89 C 942.79,295.36 942.2,287.54 938.62,280.48 C 936.33,275.38 933.37,270.54 931.78,265.15 C 929.14,263.94 931.77,268.72 932.23,269.73 C 935.32,276.84 939.74,283.93 939.27,291.98 C 939.17,295.48 938.71,298.97 937.72,302.33 C 937.03,303.93 941.36,304.62 941.62,302.89 z" style="fill:url(#linearGradient3635)" id="path3370"/>
        <g transform="matrix(0.1976191,-5.6445693e-2,4.9992303e-2,0.1635084,696.60146,309.85437)" id="g3372">
          <path d="M 1160.99,122.43 C 1161.39,114.52 1173.16,87.08 1180.81,92.66 C 1187.79,97.77 1169.5,120.12 1160.99,122.43 z" style="fill:url(#linearGradient3557);fill-opacity:1" id="path3374"/>
          <path d="M 1163.9,124.09 C 1165.7,117.55 1187.98,90.68 1193.94,99.44 C 1200.96,109.76 1173.53,124.88 1163.9,124.09 z" style="fill:url(#linearGradient3559);fill-opacity:1" id="path3376"/>
          <path d="M 1165.63,126.73 C 1168.44,119.77 1199.28,103.31 1201.84,114 C 1204.15,123.66 1173.74,129.97 1165.63,126.73 z" style="fill:url(#linearGradient3561);fill-opacity:1" id="path3378"/>
          <path d="M 1195.33,145.6 C 1182.97,142.29 1165.12,134.82 1165.95,131.73 C 1166.77,128.64 1185.97,131.09 1198.33,134.4 C 1210.69,137.71 1211.56,140.64 1210.74,143.73 C 1209.91,146.82 1207.69,148.91 1195.33,145.6 z" style="fill:url(#linearGradient3563);fill-opacity:1" id="path3380"/>
          <path d="M 1175.67,174.19 C 1167.84,160.62 1158.86,138.71 1162.25,136.75 C 1165.64,134.79 1180.13,153.53 1187.96,167.09 C 1195.8,180.66 1194.02,183.95 1190.63,185.9 C 1187.24,187.86 1183.51,187.76 1175.67,174.19 z" style="fill:url(#linearGradient3565);fill-opacity:1" id="path3382"/>
          <path d="M 1142,166.93 C 1145.31,154.56 1152.78,136.72 1155.87,137.54 C 1158.96,138.37 1156.51,157.56 1153.19,169.93 C 1149.88,182.29 1146.96,183.16 1143.87,182.33 C 1140.78,181.51 1138.68,179.29 1142,166.93 z" style="fill:url(#linearGradient3567);fill-opacity:1" id="path3384"/>
          <path d="M 1118.72,147.9 C 1129.91,141.16 1148.37,133.11 1150.46,135.63 C 1152.55,138.14 1137.48,150.27 1126.29,157.01 C 1115.1,163.75 1112,162.55 1109.91,160.03 C 1107.82,157.52 1107.52,154.64 1118.72,147.9 z" style="fill:url(#linearGradient3569);fill-opacity:1" id="path3386"/>
          <path d="M 1120.48,133.21 C 1131.51,130.78 1148.94,129.12 1150.05,131.54 C 1151.16,133.97 1137.73,140.47 1126.69,142.89 C 1115.66,145.32 1111.18,142.75 1110.08,140.32 C 1108.97,137.9 1109.45,135.63 1120.48,133.21 z" style="fill:url(#linearGradient3571);fill-opacity:1" id="path3388"/>
          <path d="M 1126.81,119.77 C 1136.36,121.52 1150.31,126.08 1149.88,128.47 C 1149.44,130.86 1134.77,130.17 1125.22,128.42 C 1115.68,126.67 1114.84,124.51 1115.28,122.12 C 1115.71,119.74 1117.26,118.02 1126.81,119.77 z" style="fill:url(#linearGradient3573);fill-opacity:1" id="path3390"/>
          <path d="M 1157.46,123.52 C 1155.13,116.08 1156.62,86.76 1165.58,89.3 C 1173.76,91.62 1164.52,118.48 1157.46,123.52 z" style="fill:url(#linearGradient3575);fill-opacity:1" id="path3392"/>
          <path d="M 1152.86,123.58 C 1143.45,124.21 1122.91,98.97 1133.5,94.33 C 1141.74,90.71 1154.01,115.01 1152.86,123.58 z" style="fill:url(#linearGradient3577);fill-opacity:1" id="path3394"/>
          <path d="M 1132.22,109.5 C 1140.58,114.39 1152.12,123.4 1150.9,125.49 C 1149.68,127.58 1134.93,122.95 1126.57,118.07 C 1118.2,113.18 1119.38,109.89 1120.6,107.8 C 1121.82,105.71 1123.86,104.62 1132.22,109.5 z" style="fill:url(#linearGradient3579);fill-opacity:1" id="path3396"/>
          <path d="M 1155.36,121.95 C 1148.9,119.1 1139.61,92.83 1147.78,90.64 C 1160.6,87.21 1161.37,114.88 1155.36,121.95 z" style="fill:url(#linearGradient3581);fill-opacity:1" id="path3398"/>
          <path d="M 1188.16,160.53 C 1177.2,152.36 1164.13,137.31 1166.1,134.47 C 1168.07,131.63 1186.09,141.57 1197.05,149.74 C 1208.01,157.91 1207.78,161.24 1205.81,164.08 C 1203.84,166.92 1199.12,168.71 1188.16,160.53 z" style="fill:url(#linearGradient3583);fill-opacity:1" id="path3400"/>
          <path d="M 1154.74,172.22 C 1153.3,156.77 1156.46,139.35 1159.84,139.04 C 1163.22,138.72 1167.3,155.46 1168.74,170.92 C 1170.18,186.37 1166.54,186.47 1163.16,186.78 C 1159.78,187.1 1156.18,187.68 1154.74,172.22 z" style="fill:url(#linearGradient3585);fill-opacity:1" id="path3402"/>
          <path d="M 1193.45,131.93 C 1182.64,132.45 1166.33,131.04 1166.2,128.34 C 1166.07,125.63 1182.17,122.66 1192.98,122.14 C 1203.79,121.62 1205.25,123.75 1205.38,126.45 C 1205.51,129.15 1204.26,131.41 1193.45,131.93 z" style="fill:url(#linearGradient3587);fill-opacity:1" id="path3404"/>
          <path d="M 1129.25,158.08 C 1137.89,146.58 1153.14,131.11 1156,133.27 C 1158.85,135.43 1148.24,154.4 1139.61,165.89 C 1130.98,177.39 1127.58,177.08 1124.72,174.92 C 1121.86,172.76 1120.62,169.57 1129.25,158.08 z" style="fill:url(#linearGradient3589);fill-opacity:1" id="path3406"/>
          <path d="M 1349.4,342 C 1349.4,365.75 1334,385 1315,385 C 1296,385 1280.6,365.75 1280.6,342 C 1280.6,318.25 1296,299 1315,299 C 1334,299 1349.4,318.25 1349.4,342 z" transform="matrix(0.4504037,0,0,0.3229403,566.56771,20.594488)" style="fill:url(#linearGradient3591);fill-opacity:1" id="path3408"/>
          <path d="M 1349.4,342 C 1349.4,365.75 1334,385 1315,385 C 1296,385 1280.6,365.75 1280.6,342 C 1280.6,318.25 1296,299 1315,299 C 1334,299 1349.4,318.25 1349.4,342 z" transform="matrix(0.2729746,0,0,0.1533176,799.88704,73.590974)" style="fill:url(#linearGradient3593);fill-opacity:1" id="path3410"/>
        </g>
        <g transform="matrix(-5.2020261e-2,0,0,3.8996466e-2,999.81389,281.89299)" id="g3420">
          <path d="M 1174.37,245.88 C 1108.77,138.53 1309.03,107.45 1370.27,85.06 C 1366.43,96.6 1183.11,261.39 1174.37,245.88 z" style="fill:url(#linearGradient3599);fill-opacity:1" id="path3422"/>
          <path d="M 1175.07,246.02 C 1187.05,254.86 1365.79,95.47 1370.27,85.06 C 1344.46,158.54 1246.96,313.49 1175.07,246.02 z" style="fill:url(#radialGradient3601);fill-opacity:1" id="path3424"/>
        </g>
      </g>
      <g transform="matrix(0.43125,0,0,0.5934474,523.33124,142.20611)" id="g6598">
        <path d="M 802,-3 C 802,24.06 780.06,46 753,46 C 725.94,46 704,24.06 704,-3 C 704,-30.06 725.94,-52 753,-52 C 780.06,-52 802,-30.06 802,-3 L 802,-3 z" transform="matrix(1.6326531,0,0,0.5510204,-286.38776,304.65306)" style="fill:url(#radialGradient6611);fill-opacity:1" id="path6600"/>
        <path d="M 1014,298 C 1014,316.77 983.54,315 946,315 C 908.46,315 878,316.77 878,298 C 878,279.23 900.32,270.66 931.71,255.71 C 969.25,237.84 1014,279.23 1014,298 z" style="fill:url(#radialGradient6613);fill-opacity:1" id="path6602"/>
      </g>
    </g>
    <g transform="translate(176,-319)" id="g3622">
      <path d="M -78.28,622.87 C -69.93,631.61 -65.4,645.31 -62.51,657.34 C -58.55,666.04 -67.67,684.91 -65.53,686.07 C -50.55,673.33 -56.17,649.2 -34.99,640.75 C -18.28,631.17 -39.08,649.23 -43.87,653.24 C -50.32,666.54 -10.27,668.64 -22.99,667.61 C -34.54,667.31 -50.35,658.88 -52.37,676.86 C -58.68,688.44 -65.23,692.65 -65.97,706.43 C -66.05,707.83 -35.93,701.52 -27.57,710.85 C -78.09,710.88 -64.1,713.71 -63.08,715.11 C -55.67,725.3 -50.54,737.68 -56.79,751.34 C -62.45,762.98 -17.94,786.1 -24.47,801.44 C -23.05,808.87 -52.02,815.27 -58.54,801.21 C -48.75,789.02 -49.26,769.34 -65.82,763.52 C -69.17,752.08 -61.64,731.32 -68.68,718.96 C -82.13,708.52 -101.51,707.83 -102.47,687.2 C -92.04,676.98 -89.7,708.19 -75.67,707.8 C -68.39,697.19 -70.34,679.92 -68.42,664.7 C -67.78,650.39 -74.49,636.98 -82.25,625.61 C -81.84,623.85 -79.95,622.9 -78.28,622.87 z" style="fill:url(#radialGradient5719);fill-opacity:1;stroke:none;stroke-opacity:0.10928961" id="path3541"/>
      <path d="M -11.68,697.72 C -9.04,674.3 -13.7,665.12 -31.21,663.89 C -39.97,678.06 -18.59,674.85 -11.68,697.72 z" style="fill:url(#radialGradient3639);fill-opacity:1" id="path3578"/>
      <path d="M -44.22,690.6 C -34.55,677.5 -34.16,670.4 -44.22,663.61 C -54.35,669.07 -40.45,674.53 -44.22,690.6 z" style="fill:url(#radialGradient3641);fill-opacity:1" id="path3582"/>
      <path d="M -5.59,659.37 C -12.38,640.43 -19.39,635.14 -33.28,640.78 C -34.67,654.94 -19.49,644.44 -5.59,659.37 z" style="fill:url(#radialGradient3643);fill-opacity:1" id="path3586"/>
      <path d="M -108.8,640.93 C -100.76,622.49 -93.4,617.7 -79.92,624.26 C -79.5,638.47 -93.94,626.97 -108.8,640.93 z" style="fill:url(#radialGradient3645);fill-opacity:1" id="path3590"/>
      <path d="M -80.38,713.27 C -78.13,693.28 -82.1,685.45 -97.06,684.39 C -104.53,696.49 -86.28,693.75 -80.38,713.27 z" style="fill:url(#radialGradient3647);fill-opacity:1" id="path3598"/>
      <path d="M -128.39,703.29 C -120.35,684.85 -112.99,680.05 -99.51,686.61 C -99.09,700.83 -113.52,689.33 -128.39,703.29 z" style="fill:url(#radialGradient3649);fill-opacity:1" id="path3594"/>
      <path d="M -56.46,647.55 C -58.47,627.54 -64,620.72 -78.84,622.83 C -83.6,636.23 -66.34,629.71 -56.46,647.55 z" style="fill:url(#radialGradient3651);fill-opacity:1" id="path3574"/>
      <path d="M -1.78,720.09 C -13.49,703.73 -21.68,700.57 -33.5,709.79 C -30.96,723.78 -19.23,709.53 -1.78,720.09 z" style="fill:url(#radialGradient3653);fill-opacity:1" id="path3606"/>
      <path d="M -26.37,727.63 C -28.05,712.46 -32.29,707.34 -43.53,709.05 C -47.04,719.25 -34,714.18 -26.37,727.63 z" style="fill:url(#radialGradient3655);fill-opacity:1" id="path3602"/>
      <path d="M -136.75,693.22 C -125.04,676.86 -116.85,673.7 -105.03,682.92 C -107.57,696.91 -119.3,682.66 -136.75,693.22 z" style="fill:url(#radialGradient3657);fill-opacity:1" id="path3610"/>
      <path d="M -112.16,700.76 C -110.49,685.59 -106.24,680.47 -95,682.18 C -91.49,692.38 -104.54,687.31 -112.16,700.76 z" style="fill:url(#radialGradient3659);fill-opacity:1" id="path3612"/>
      <path d="M -49.78,731.3 C -43.65,717.33 -44.77,710.76 -55.36,706.63 C -63.49,713.71 -49.66,715.84 -49.78,731.3 z" style="fill:url(#radialGradient3661);fill-opacity:1" id="path3618"/>
    </g>
    <g transform="matrix(-0.4125,0,0,0.4154879,510.48751,363.23213)" id="g5721">
      <path d="M 967.24,303 C 967.24,317.91 939.02,330 904.21,330 C 869.4,330 841.18,317.91 841.18,303 C 841.18,288.09 869.4,276 904.21,276 C 939.02,276 967.24,288.09 967.24,303 L 967.24,303 z" style="fill:url(#radialGradient5727);fill-opacity:1" id="path5723"/>
      <path d="M 960.15,298 C 960.15,316.77 936.15,315 906.58,315 C 877,315 853,316.77 853,298 C 853,279.23 842.22,279.17 866.96,264.22 C 896.53,246.35 960.15,279.23 960.15,298 z" style="fill:url(#radialGradient5729);fill-opacity:1" id="path5725"/>
    </g>
  </g>
  <path d="M 211.82566,329.19058 C 241.67176,329.19058 265.89465,304.97129 265.89465,275.12966 C 265.89465,245.28804 241.67176,221.06874 211.82566,221.06874 C 181.97958,221.06874 157.75668,245.28804 157.75668,275.12966 C 157.75668,304.97129 181.97958,329.19058 211.82566,329.19058 z M 211.82566,319.05416 C 187.57572,319.05416 167.89461,299.37599 167.89461,275.12966 C 167.89461,250.88334 187.57572,231.20517 211.82566,231.20517 C 236.07558,231.20517 255.75671,250.88334 255.75671,275.12966 C 255.75671,299.37599 236.07558,319.05416 211.82566,319.05416 z" style="opacity:0.55555558;fill:url(#radialGradient22321);fill-opacity:1;stroke:url(#radialGradient22323);stroke-width:1" id="path10703"/>
  <path d="M 281.65011,242.71603 C 293.00656,242.71603 302.22338,233.50059 302.22338,222.14584 C 302.22338,210.79109 293.00656,201.57564 281.65011,201.57564 C 270.29367,201.57564 261.07685,210.79109 261.07685,222.14584 C 261.07685,233.50059 270.29367,242.71603 281.65011,242.71603 z M 281.65011,238.85912 C 272.423,238.85912 264.93434,231.37157 264.93434,222.14584 C 264.93434,212.9201 272.423,205.43255 281.65011,205.43255 C 290.87722,205.43255 298.36589,212.9201 298.36589,222.14584 C 298.36589,231.37157 290.87722,238.85912 281.65011,238.85912 z" style="fill:url(#radialGradient22317);fill-opacity:1" id="path10720"/>
  <path d="M 267.29789,235.86316 C 267.29789,241.70826 262.5588,246.44664 256.71284,246.44664 C 250.86687,246.44664 246.12778,241.70826 246.12778,235.86316 C 246.12778,230.01806 250.86687,225.27968 256.71284,225.27968 C 262.5588,225.27968 267.29789,230.01806 267.29789,235.86316 L 267.29789,235.86316 z" style="opacity:0.91534394;fill:url(#radialGradient22314);fill-opacity:1" id="path10910"/>
  <path d="M 145.82566,331.19578 C 156.35175,331.19578 164.89465,322.65417 164.89465,312.12968 C 164.89465,301.6052 156.35175,293.06359 145.82566,293.06359 C 135.29958,293.06359 126.75668,301.6052 126.75668,312.12968 C 126.75668,322.65417 135.29958,331.19578 145.82566,331.19578 z M 145.82566,327.62089 C 137.27322,327.62089 130.33211,320.68083 130.33211,312.12968 C 130.33211,303.57854 137.27322,296.63848 145.82566,296.63848 C 154.37809,296.63848 161.31921,303.57854 161.31921,312.12968 C 161.31921,320.68083 154.37809,327.62089 145.82566,327.62089 z" style="opacity:0.55555558;fill:url(#radialGradient23341);fill-opacity:1;stroke:url(#radialGradient23343);stroke-width:1" id="path23339"/>
  <metadata>
    <rdf:RDF>
      <cc:Work>
        <dc:format>image/svg+xml</dc:format>
        <dc:type rdf:resource="http://purl.org/dc/dcmitype/StillImage"/>
        <cc:license rdf:resource="http://creativecommons.org/licenses/publicdomain/"/>
        <dc:publisher>
          <cc:Agent rdf:about="http://openclipart.org/">
            <dc:title>Open Clip Art Library</dc:title>
          </cc:Agent>
        </dc:publisher>
        <dc:title>plants pebbles and flowers</dc:title>
        <dc:date>2007-02-11T17:21:22</dc:date>
        <dc:description>made to develop a concept for fedora.</dc:description>
        <dc:source>http://openclipart.org/detail/3182/plants-pebbles-and-flowers-by-andy</dc:source>
        <dc:creator>
          <cc:Agent>
            <dc:title>Andy</dc:title>
          </cc:Agent>
        </dc:creator>
        <dc:subject>
          <rdf:Bag>
            <rdf:li>clip art</rdf:li>
            <rdf:li>clipart</rdf:li>
            <rdf:li>fern</rdf:li>
            <rdf:li>flower</rdf:li>
            <rdf:li>green</rdf:li>
            <rdf:li>illustration</rdf:li>
            <rdf:li>nature</rdf:li>
            <rdf:li>pebbles</rdf:li>
            <rdf:li>plant</rdf:li>
            <rdf:li>vines</rdf:li>
            <rdf:li>water</rdf:li>
          </rdf:Bag>
        </dc:subject>
      </cc:Work>
      <cc:License rdf:about="http://creativecommons.org/licenses/publicdomain/">
        <cc:permits rdf:resource="http://creativecommons.org/ns#Reproduction"/>
        <cc:permits rdf:resource="http://creativecommons.org/ns#Distribution"/>
        <cc:permits rdf:resource="http://creativecommons.org/ns#DerivativeWorks"/>
      </cc:License>
    </rdf:RDF>
  </metadata>
</svg>
